<?xml version="1.0" encoding="UTF-8" standalone="no"?>
<!DOCTYPE svg PUBLIC "-//W3C//DTD SVG 1.1//EN" "http://www.w3.org/Graphics/SVG/1.1/DTD/svg11.dtd">
<svg width="100%" height="100%" viewBox="0 0 500 500" version="1.1" xmlns="http://www.w3.org/2000/svg" xmlns:xlink="http://www.w3.org/1999/xlink" xml:space="preserve" xmlns:serif="http://www.serif.com/" style="fill-rule:evenodd;clip-rule:evenodd;stroke-linejoin:round;stroke-miterlimit:2;">
    <g transform="matrix(1.0826,0,0,1.17263,-38.5525,-42.3323)">
        <path d="M469.751,121.379L386.617,44.628L91.033,44.628C91.033,44.628 91.426,307.147 91.033,368.687C90.66,427.097 141.063,454.981 184.528,454.78C248.571,454.484 469.751,453.965 469.751,453.965L469.751,121.379Z" style="fill:rgb(194,194,194);"/>
    </g>
    <path d="M380,10L380,100L470,100L380,10Z" style="fill-opacity:0.22;"/>
    <g transform="matrix(1.73856,0,0,1.72177,-189.304,-76.6026)">
        <path d="M251.009,153.736C242.285,177.451 229.123,209.947 221,228C207.606,229.63 194.41,234.318 185,240C169.632,249.28 164.169,256.207 164.245,270.032C164.307,281.227 167.892,286.98 172.005,289.501C176.506,292.26 182.693,291.888 189.239,288.451C198.892,283.384 209.848,271.659 214.968,262.905C218.578,256.731 221.974,250.894 221.974,250.894C222.052,250.76 222.125,250.623 222.191,250.484C222.191,250.484 227.516,238.117 233,226C251.356,222.769 268.389,223.972 288.033,223.549C301.966,239.715 319.881,248.354 340,252C362.506,256.078 367.69,243.125 362,234C356.296,224.852 341.6,219.214 326,216C314.162,213.561 306.145,211.949 293.422,212.008C291.369,209.414 289.389,206.708 287.48,203.903C277.537,189.297 269.514,172.032 263.163,153.751C266.309,145.035 269.495,120.196 269,101C268.579,84.688 265.782,72.451 255.063,77.643C250.953,79.634 246.588,83.707 243.925,90.864C240.698,99.537 239.664,113.069 244.429,131.445C246.376,138.95 248.565,146.411 251.009,153.736ZM221,229C219.122,225.959 187.903,246.183 182,252C176.838,257.087 175.719,263.486 175.755,269.968C175.773,273.262 179.808,285.318 205.032,257.095C209.271,252.352 218.301,234.835 221,229ZM303.933,223.64C314.626,233.9 326.957,241.374 341.229,244.378C352.619,246.775 369.228,248.407 358,238C351.773,232.228 340.401,227.193 329.239,225.704C321.062,224.614 312.562,223.93 303.933,223.64ZM257.011,170.123C250.48,186.913 240.121,209.128 234,223C247.345,218.287 255.876,215.125 279.366,212.394C270.6,199.919 263.183,185.511 257.011,170.123ZM257.4,135.322C260.576,125.486 263.705,116.438 265,109C266.272,101.695 265.337,96.09 263.958,92.167C263.179,89.95 262.266,88.341 260.806,88.033C259.465,87.75 258.261,88.87 257.071,90.426C254.762,93.444 253.18,98.301 252.771,104.883C252.373,111.29 253.139,119.179 255.571,128.555C256.157,130.816 256.765,133.072 257.4,135.322Z" style="fill:rgb(205,55,55);"/>
    </g>
</svg>
